HIERARCHY
ROOT Hips
{
	OFFSET 0.000000 0.000000 0.000000 
	CHANNELS 6 Xposition Yposition Zposition Zrotation Yrotation Xrotation
	JOINT LeftUpLeg
	{
		OFFSET 1.363060 -1.794630 0.839290 
		CHANNELS 3 Zrotation Yrotation Xrotation
		JOINT LeftLeg
		{
			OFFSET 2.448110 -6.726130 0.000000 
			CHANNELS 3 Zrotation Yrotation Xrotation
			JOINT LeftFoot
			{
				OFFSET 2.562200 -7.039590 0.000000 
				CHANNELS 3 Zrotation Yrotation Xrotation
				JOINT LeftToeBase
				{
					OFFSET 0.157640 -0.433110 2.322550 
					CHANNELS 3 Zrotation Yrotation Xrotation
					End Site
					{
						OFFSET 0.000000 0.000000 0.000000 
					}
				}
			}
		}
	}
	JOINT RightUpLeg
	{
		OFFSET -1.305520 -1.794630 0.839290 
		CHANNELS 3 Zrotation Yrotation Xrotation
		JOINT RightLeg
		{
			OFFSET -2.542530 -6.985550 0.000000 
			CHANNELS 3 Zrotation Yrotation Xrotation
			JOINT RightFoot
			{
				OFFSET -2.568260 -7.056230 0.000000 
				CHANNELS 3 Zrotation Yrotation Xrotation
				JOINT RightToeBase
				{
					OFFSET -0.164730 -0.452590 2.363150 
					CHANNELS 3 Zrotation Yrotation Xrotation
					End Site
					{
						OFFSET 0.000000 0.000000 0.000000 
					}
				}
			}
		}
	}
	JOINT Spine
	{
		OFFSET 0.028270 2.035590 -0.193380 
		CHANNELS 3 Zrotation Yrotation Xrotation
		JOINT Spine1
		{
			OFFSET 0.056720 2.048850 -0.042750 
			CHANNELS 3 Zrotation Yrotation Xrotation
			JOINT Neck1
			{
				OFFSET -0.054170 1.746240 0.172020 
				CHANNELS 3 Zrotation Yrotation Xrotation
				JOINT Head
				{
					OFFSET 0.104070 1.761360 -0.123970 
					CHANNELS 3 Zrotation Yrotation Xrotation
					End Site
					{
						OFFSET 0.000000 0.000000 0.000000 
					}
				}
			}
			JOINT LeftArm
			{
				OFFSET 3.362410 1.200890 -0.311210 
				CHANNELS 3 Zrotation Yrotation Xrotation
				JOINT LeftForeArm
				{
					OFFSET 4.983000 -0.000000 -0.000000 
					CHANNELS 3 Zrotation Yrotation Xrotation
					JOINT LeftHand
					{
						OFFSET 3.483560 -0.000000 -0.000000 
						CHANNELS 3 Zrotation Yrotation Xrotation
						JOINT LeftHandIndex1
						{
							OFFSET 0.715260 -0.000000 -0.000000 
							CHANNELS 3 Zrotation Yrotation Xrotation
							End Site
							{
								OFFSET 0.000000 0.000000 0.000000 
							}
						}
					}
				}
			}
			JOINT RightArm
			{
				OFFSET -3.136600 1.374050 -0.404650 
				CHANNELS 3 Zrotation Yrotation Xrotation
				JOINT RightForeArm
				{
					OFFSET -5.241900 -0.000000 -0.000000 
					CHANNELS 3 Zrotation Yrotation Xrotation
					JOINT RightHand
					{
						OFFSET -3.444170 -0.000000 -0.000000 
						CHANNELS 3 Zrotation Yrotation Xrotation
						JOINT RightHandIndex1
						{
							OFFSET -0.622530 -0.000000 -0.000000 
							CHANNELS 3 Zrotation Yrotation Xrotation
							End Site
							{
								OFFSET 0.000000 0.000000 0.000000 
							}
						}
					}
				}
			}
		}
	}
}
MOTION
Frames: 13
Frame Time: 0.041667
12.136933 17.608449 -6.341135 1.126899 -40.463964 4.174702 -30.456969 4.666339 -28.746097 4.963546 15.441357 45.470824 -6.417403 19.354632 -1.500049 0.383600 -3.977300 -11.012800 28.765263 -7.012393 -0.882613 -5.634730 -13.112860 44.946359 2.693778 -14.012504 0.933758 -0.549800 4.750200 -13.197400 -0.767454 -1.257784 -5.133762 -6.404271 -1.388537 -12.316065 8.076951 1.797950 11.034098 4.426200 0.709800 3.314700 -77.252256 -14.189127 -38.182106 31.498241 -35.269112 -13.989780 2.370088 1.277386 32.598510 -7.125000 0.000000 0.000000 82.416762 -19.744303 29.889077 -82.089445 60.426352 -49.147165 0.076250 1.542017 -5.212622 7.125000 0.000000 0.000000 
12.220575 17.675828 -6.599587 -0.989698 -43.874912 5.825828 -28.204718 5.039081 -31.320807 5.582164 16.037605 47.375617 -7.234427 21.387827 -1.264155 0.265000 -3.311400 -9.146800 30.633588 -6.914127 1.093329 -4.464678 -11.892246 40.122347 2.857967 -14.477386 0.233009 -1.000900 6.366500 -17.851500 -0.578094 -1.421589 -5.134730 -6.261914 -1.501418 -12.372264 7.932164 3.452905 10.999374 4.189600 1.566300 3.244500 -75.960035 -13.430915 -40.006880 29.482300 -33.471829 -12.740223 2.371920 1.262557 34.223602 -7.125000 0.000000 0.000000 80.491602 -18.316664 31.746578 -83.098333 59.938900 -49.839890 0.113300 1.478109 -5.619696 7.125000 0.000000 0.000000 
12.302337 17.721079 -6.883042 -3.054056 -47.476430 7.776370 -26.049759 5.677378 -34.406217 6.364946 16.722817 49.634218 -8.062878 23.577469 -0.546085 0.130600 -2.329800 -6.418100 32.233001 -6.169823 2.580005 -3.440873 -10.680745 35.725754 2.666141 -13.318102 -1.677979 -1.646200 8.086600 -22.977300 -0.476708 -1.236709 -5.167206 -6.174675 -1.435530 -12.574171 7.838841 4.741330 10.798296 3.926900 2.256200 3.154200 -74.424010 -12.556133 -40.875627 27.690833 -31.839689 -11.712539 2.355783 1.255746 35.641804 -7.125000 0.000000 0.000000 79.044218 -16.932793 33.081058 -84.450476 59.365957 -50.549981 0.171687 1.446288 -5.557383 7.125000 0.000000 0.000000 
12.406780 17.741215 -7.165834 -4.937212 -51.017261 9.960747 -24.287197 6.916858 -38.239667 7.334988 17.486296 52.299502 -8.723885 25.564373 0.856828 0.019800 -0.909000 -2.498300 33.352034 -5.274125 3.099906 -2.781500 -9.723940 32.431481 2.282907 -11.685423 -1.382108 -2.068000 9.006400 -25.815300 -0.229841 -1.688018 -5.156884 -5.428904 -1.587806 -12.387419 7.853843 6.745629 10.572205 3.889300 3.265200 3.015100 -73.507540 -11.353460 -42.326918 26.789133 -30.970556 -11.207460 2.333053 1.271607 35.760873 -7.125000 0.000000 0.000000 76.538688 -14.920589 35.738272 -85.758931 58.795243 -51.645554 0.222146 1.568053 -5.659697 7.125000 0.000000 0.000000 
12.514653 17.755488 -7.440107 -7.105704 -54.652766 12.556298 -22.538274 8.208253 -42.038672 8.351309 18.207268 55.004128 -9.370149 27.527154 1.857480 0.025200 1.024300 2.815600 34.199783 -4.217135 2.589890 -2.469690 -9.171159 30.590738 1.585734 -8.686073 -1.234961 -2.309000 9.482100 -27.315400 -0.174138 -1.609836 -5.183200 -5.474697 -1.580526 -12.393219 7.480607 8.175504 10.057422 3.831200 4.004000 3.129500 -72.004160 -10.135649 -42.978396 26.131159 -30.351262 -10.885126 2.282638 1.282300 35.917060 -7.125000 0.000000 0.000000 75.690727 -13.554243 37.042206 -88.134274 58.051343 -53.450582 0.287944 1.685713 -5.206562 7.125000 0.000000 0.000000 
12.615776 17.698066 -7.705418 -10.304296 -58.580274 16.300091 -20.432549 9.712068 -45.795902 9.314886 18.829993 57.584530 -9.860952 28.905595 1.995234 0.172500 2.675800 7.377400 35.471621 -2.078980 1.482185 -2.418315 -9.069518 30.145638 0.816570 -5.332547 -1.364213 -2.369000 9.595800 -27.677300 -0.070941 -1.269749 -5.238003 -5.254975 -1.418930 -12.385870 7.243287 9.517280 9.837318 3.448700 4.713200 3.027900 -70.571629 -8.945122 -43.980869 25.450597 -29.678182 -10.558211 2.244155 1.267212 36.129270 -7.125000 0.000000 0.000000 74.087990 -12.050848 38.843828 -90.214515 57.324679 -54.666300 0.147011 2.585317 -4.828425 7.125000 0.000000 0.000000 
12.713581 17.628253 -7.959776 -14.085539 -62.504697 20.406962 -18.315528 11.312229 -48.557708 9.977403 19.207937 59.426524 -10.019415 29.168688 1.302237 0.305200 3.552000 9.819600 36.280567 -0.758570 0.102593 -2.535757 -9.150287 30.335095 -0.125798 -1.031294 -1.128721 -2.195700 9.262300 -26.619400 0.079086 -1.005124 -5.273458 -4.688416 -1.241005 -12.446208 7.077182 11.001358 9.609598 3.180800 5.473900 2.906900 -69.353798 -7.608127 -45.217788 24.799260 -29.009694 -10.230738 2.196958 1.275976 35.837484 -7.125000 0.000000 0.000000 72.078906 -10.574952 40.860066 -92.438867 56.498330 -56.731977 0.028511 3.420139 -5.053443 7.125000 0.000000 0.000000 
12.803087 17.578577 -8.194772 -18.456136 -66.366184 24.942947 -16.339773 12.910967 -50.138144 10.278959 19.326230 60.275981 -9.683940 28.189601 0.956999 0.218700 3.010200 8.307100 36.684710 -0.083927 -1.296934 -2.726090 -9.296543 30.755717 -1.029450 3.508200 -0.701988 -1.937400 8.734500 -24.968300 0.165456 -0.711438 -5.275014 -4.282506 -1.060384 -12.458399 7.005239 12.428243 9.394326 2.976200 6.205700 2.796900 -68.038037 -6.332569 -46.718303 24.174627 -28.314025 -9.891170 2.127138 1.306354 35.541831 -7.125000 0.000000 0.000000 70.257244 -9.160799 42.793556 -94.735849 55.622715 -59.006834 -0.004967 3.588049 -5.025087 7.125000 0.000000 0.000000 
12.887172 17.559436 -8.397130 -23.765267 -69.755893 30.085670 -14.591279 14.733052 -50.634171 10.231278 19.169536 59.919244 -8.909067 26.442184 2.310847 0.023200 0.982500 2.700600 36.893673 -0.565231 -2.327280 -2.869762 -9.293222 30.759967 -1.778100 8.081319 0.120914 -1.725000 8.268100 -23.531300 0.229906 -0.538611 -5.244619 -4.094543 -0.974984 -12.514642 7.008466 13.806099 9.354586 2.873100 6.910600 2.823900 -66.818046 -5.042950 -48.450088 23.538163 -27.566918 -9.537862 2.063979 1.322898 35.370292 -7.125000 0.000000 0.000000 68.797880 -7.714139 44.105246 -93.569297 54.886813 -59.682554 0.025159 -3.048425 -3.919042 7.125000 0.000000 0.000000 
12.961853 17.530228 -8.586875 -31.450106 -72.629675 37.332746 -12.588906 16.489910 -50.324855 9.984520 18.841340 58.709866 -8.263261 25.256334 4.422499 0.036300 -1.229300 -3.379900 37.394132 -1.812993 -2.961924 -2.943276 -9.153790 30.346841 -2.300146 12.515767 1.187816 -1.476100 7.676900 -21.737000 0.343809 -0.425266 -5.195903 -3.804470 -0.913241 -12.542040 7.073135 15.192489 9.492034 2.850400 7.616200 2.976100 -65.852976 -3.626099 -50.329392 22.912036 -26.808427 -9.184148 2.018588 1.323283 35.267489 -7.125000 0.000000 0.000000 67.585271 -6.330499 45.248693 -94.319165 54.544228 -61.298358 -0.275375 -2.077045 -4.636221 7.125000 0.000000 0.000000 
13.028568 17.515623 -8.758144 -40.856518 -74.429660 46.170109 -10.469237 17.634821 -49.425949 9.584686 18.426400 56.926235 -8.202456 25.367307 5.540699 0.072600 -1.737800 -4.781600 38.232975 -3.572443 -3.216033 -2.942823 -8.920394 29.629010 -2.551478 16.259927 2.272177 -1.083600 6.616200 -18.583300 0.475571 -0.536621 -5.140886 -3.668821 -0.995949 -12.570047 7.182023 16.512711 9.651716 2.882000 8.285900 3.132900 -65.056945 -2.090066 -52.280134 22.328470 -26.058569 -8.825983 1.982649 1.315493 35.296438 -7.125000 0.000000 0.000000 66.750879 -5.138097 45.963216 -94.916196 54.282633 -61.951860 -0.322214 -2.059913 -4.646160 7.125000 0.000000 0.000000 
13.082560 17.502457 -8.923880 -51.032018 -75.607144 56.028220 -8.624225 18.330181 -48.534258 9.247542 18.044477 55.102659 -8.407297 26.452516 7.302266 0.191900 -2.820900 -7.780600 38.881283 -6.087755 -3.772551 -2.963566 -8.659566 28.850621 -2.577887 20.303049 3.872349 -0.637700 5.109000 -14.219700 0.609335 -0.647169 -5.093198 -3.390721 -1.043567 -12.447316 7.414494 17.659211 9.782567 2.996700 8.867900 3.242900 -64.430303 -0.578227 -53.828548 21.662575 -25.261953 -8.453910 1.965730 1.291194 35.483419 -7.125000 0.000000 0.000000 66.022168 -4.254906 46.438588 -95.470793 54.066056 -62.441000 -0.327676 -2.045765 -4.546777 7.125000 0.000000 0.000000 
13.128918 17.492943 -9.079217 -60.078317 -76.468005 65.087671 -7.844682 18.890814 -47.931431 8.854351 17.720491 53.408391 -9.919796 29.574334 4.805670 0.037800 -1.255200 -3.451300 39.315634 -8.033682 -4.090105 -2.895666 -8.293612 27.731126 -2.401703 23.026020 5.478917 -0.314600 3.605400 -9.969200 0.772779 -0.858531 -5.040974 -2.714151 -1.062875 -12.091526 7.665021 18.740491 9.915081 3.170000 9.410500 3.341400 -64.317696 0.767453 -54.849871 21.152124 -24.701111 -8.193948 1.967082 1.279519 35.400460 -7.125000 0.000000 0.000000 65.158287 -3.505953 46.892264 -95.752246 53.917222 -62.827506 -0.353225 -2.018007 -4.477883 7.125000 0.000000 0.000000 
